PathFileType	4	(X/Y/Z)	E:\Qualisys_Data\Carbon_Farble_Plate\Data\Amateur_Runner\S2\T2\S2T2V11_c3d.trc
DataRate	CameraRate	NumFrames	NumMarkers	Units	OrigDataRate	OrigDataStartFrame	OrigNumFrames
200.000000	200.000000	4	39	mm	200.000000	285	326
Frame#	Time	LSHO			RSHO			LICST			RICST			LASIS			LHEEL			RASIS			LTROC			RTROC			SACR			LTH1			LSK4			LTH2			LTH3			RHM5			LSK2			LTH4			RTH1			LTOE			RTH2			RTH3			RTH4			LLEP			RLEP			LSK1			LSK3			RSK1			LHM5			RSK2			LFT1			RSK3			RSK4			LLME			RLME			RTOE			RHEEL			RFT1			RFT2			LFT2			
		X1	Y1	Z1	X2	Y2	Z2	X3	Y3	Z3	X4	Y4	Z4	X5	Y5	Z5	X6	Y6	Z6	X7	Y7	Z7	X8	Y8	Z8	X9	Y9	Z9	X10	Y10	Z10	X11	Y11	Z11	X12	Y12	Z12	X13	Y13	Z13	X14	Y14	Z14	X15	Y15	Z15	X16	Y16	Z16	X17	Y17	Z17	X18	Y18	Z18	X19	Y19	Z19	X20	Y20	Z20	X21	Y21	Z21	X22	Y22	Z22	X23	Y23	Z23	X24	Y24	Z24	X25	Y25	Z25	X26	Y26	Z26	X27	Y27	Z27	X28	Y28	Z28	X29	Y29	Z29	X30	Y30	Z30	X31	Y31	Z31	X32	Y32	Z32	X33	Y33	Z33	X34	Y34	Z34	X35	Y35	Z35	X36	Y36	Z36	X37	Y37	Z37	X38	Y38	Z38	X39	Y39	Z39	

286	1.425	1870.501708984375	1477.565673828125	-545.3032836914062	1847.586791992188	1462.715698242188	-235.4219970703125	1839.991577148438	1006.301452636719	-521.6990966796875	1853.932373046875	1008.770141601562	-221.107177734375	1894.153442382812	956.2271728515624	-509.3606567382812	1436.258422851562	203.7224731445312	-383.6893615722656	1914.263671875	963.7318115234376	-251.3359222412109	1753.647705078125	891.72802734375	-513.4154663085938	1790.730834960938	901.374755859375	-201.2872314453125	1753.557739257812	1045.37841796875	-374.1932373046875	1824.778076171875	653.598876953125	-520.2808227539062	1561.612670898438	348.0035400390625	-486.2896423339844	1743.619018554688	671.2764282226562	-523.1672973632812	1801.739501953125	555.2044067382812	-497.2334899902344	1865.037841796875	127.7716979980469	-214.5597076416016	1617.23291015625	429.20458984375	-505.2166137695312	1718.6552734375	576.5266723632812	-497.2206420898438	2015.583251953125	707.2972412109375	-210.00830078125	1607.451293945312	47.98875427246094	-404.5601196289062	1944.541625976562	675.6398315429688	-201.4882659912109	2053.429443359375	614.2613525390625	-228.2234039306641	1979.07080078125	586.1092529296875	-218.9652862548828	1734.603759765625	509.762451171875	-495.3696594238281	2011.730712890625	552.340576171875	-223.0475769042969	1682.5458984375	385.4844970703125	-495.8791809082031	1626.234985351562	302.8301696777344	-482.7907409667969	1987.086059570312	435.8341064453125	-221.2120666503906	1549.840698242188	59.64667510986328	-461.9971008300781	1921.32861328125	480.8939819335938	-212.6488952636719	1426.588623046875	176.7988739013672	-359.0244140625	1928.823364257812	352.5031127929688	-230.4554901123047	1865.515869140625	400.3658752441406	-225.8929748535156	1494.74462890625	174.4537963867188	-449.1470642089844	1789.461303710938	221.1831970214844	-255.6746978759766	1944.440063476562	112.8096618652344	-262.7408752441406	1733.516845703125	233.1651000976562	-319.3948974609375	1739.052856445312	199.0487670898438	-347.8161926269531	1716.18359375	206.2403411865234	-297.216796875	1413.537963867188	175.5107116699219	-411.0255432128906
287	1.43	1887.054077148438	1481.859985351562	-544.4021606445312	1862.542846679688	1466.46826171875	-235.5247192382812	1856.494506835938	1010.123413085938	-521.5296630859375	1870.007446289062	1012.794616699219	-221.2231140136719	1911.035400390625	959.3673706054688	-508.9877319335938	1448.166259765625	212.9402465820312	-386.4416809082031	1930.419555664062	967.724609375	-251.1726531982422	1769.66943359375	896.2313842773438	-514.0510864257812	1806.9306640625	905.3924560546876	-201.2759704589844	1770.071411132812	1049.145874023438	-373.7850341796875	1836.771118164062	657.7028198242188	-521.1277465820312	1571.327880859375	353.5291137695312	-487.9124145507812	1755.636352539062	676.3515014648438	-523.6376953125	1811.79931640625	559.33984375	-498.6640014648438	1897.243286132812	124.1683959960938	-214.9459533691406	1626.752563476562	435.1388549804688	-506.582763671875	1729.597778320312	582.1715087890625	-497.9299621582031	2031.38232421875	710.6400146484375	-210.4658508300781	1610.613647460938	47.32052993774414	-405.556396484375	1960.33740234375	679.5057373046875	-201.2371673583984	2068.359130859375	617.4298095703125	-229.0958404541016	1994.015380859375	589.8767700195312	-219.5702514648438	1744.287475585938	515.11474609375	-496.3489379882812	2026.643798828125	555.3592529296875	-223.1026458740234	1691.9365234375	391.4033813476562	-498.02490234375	1635.684692382812	308.6847839355469	-485.2435913085938	2005.46240234375	436.7177124023438	-221.0221710205078	1554.017944335938	61.7490234375	-463.123291015625	1937.887084960938	479.0850524902344	-212.0936737060547	1436.81591796875	186.7604217529297	-361.6180114746094	1950.842041015625	350.708740234375	-230.4301605224609	1885.6826171875	396.2099609375	-226.1624450683594	1504.256469726562	179.5224151611328	-451.3228759765625	1817.440185546875	213.491455078125	-256.7018127441406	1978.026977539062	113.0382995605469	-261.4235229492188	1761.17236328125	222.4264221191406	-320.8031921386719	1769.623657226562	188.7488861083984	-349.3154296875	1745.479614257812	194.7599334716797	-299.2261352539062	1424.153198242188	185.5424346923828	-413.8157348632812
288	1.435	1903.701416015625	1485.882080078125	-543.409912109375	1876.32470703125	1470.418823242188	-236.1120452880859	1873.608520507812	1013.862243652344	-521.3212280273438	1886.7734375	1016.986450195312	-221.2868347167969	1927.898681640625	963.1023559570312	-508.7709655761719	1460.620971679688	222.3395843505859	-389.4602355957031	1946.315551757812	971.3715209960938	-251.2473449707031	1785.544311523438	901.244384765625	-514.069580078125	1822.934326171875	910.248291015625	-200.5966033935547	1786.583618164062	1053.161254882812	-374.4172668457031	1848.951293945312	661.9556274414062	-522.2539672851562	1580.972778320312	359.55126953125	-490.1155090332031	1768.1171875	681.9380493164062	-524.1776123046875	1822.182983398438	563.6524047851562	-500.7162475585938	1928.97314453125	120.5668792724609	-213.8218078613281	1636.573974609375	440.8040771484375	-507.1883239746094	1740.302978515625	587.8353881835938	-498.7463989257812	2047.585815429688	713.88525390625	-210.8315734863281	1614.169311523438	46.82327651977539	-406.4660339355469	1976.04541015625	683.4129638671875	-200.7674102783203	2083.374755859375	620.0931396484375	-229.7664489746094	2008.403686523438	593.5013427734375	-219.8885803222656	1754.23583984375	520.5439453125	-497.3736572265625	2040.728759765625	557.7146606445312	-223.8077087402344	1701.565551757812	397.2740173339844	-499.3953247070312	1645.132080078125	314.5618286132812	-487.7588806152344	2023.9755859375	437.46484375	-220.9315338134766	1558.591796875	63.2785530090332	-464.464599609375	1954.738891601562	476.7574157714844	-212.2052001953125	1448.075439453125	197.4141998291016	-364.3502197265625	1973.487426757812	349.3639831542969	-230.6735687255859	1906.48681640625	391.5540161132812	-226.4566650390625	1513.940795898438	185.1078338623047	-454.1654968261719	1845.895874023438	206.2454986572266	-256.9818420410156	2011.026977539062	113.2791213989258	-260.1173400878906	1790.329833984375	212.3459625244141	-322.6325988769531	1800.482299804688	178.9259643554688	-350.7958374023438	1775.57861328125	183.7057342529297	-300.7008972167969	1435.235961914062	196.4351654052734	-416.7879943847656
289	1.44	1920.617309570312	1489.571899414062	-542.4624633789062	1891.770751953125	1473.901000976562	-236.275634765625	1891.094482421875	1017.66943359375	-521.0869140625	1903.411499023438	1020.436950683594	-221.4206390380859	1945.255859375	966.4677124023438	-508.5068664550781	1473.961059570312	231.6501007080078	-392.8176574707031	1963.120361328125	974.8419189453124	-251.0955810546875	1802.32373046875	905.9598999023438	-514.1514892578125	1839.367431640625	914.1492309570312	-201.0262603759766	1803.073120117188	1056.952514648438	-374.2475280761719	1861.171630859375	665.91650390625	-523.229736328125	1590.846069335938	365.2530517578125	-491.639892578125	1780.87939453125	687.2899780273438	-525.0895385742188	1833.06494140625	567.8761596679688	-501.961181640625	1961.83056640625	117.5605621337891	-214.0435485839844	1646.789184570312	446.4996337890625	-508.4226684570312	1751.840087890625	593.2731323242188	-499.38232421875	2063.08154296875	716.2142944335938	-211.9141540527344	1617.714233398438	46.12815856933594	-407.1235046386719	1991.75927734375	686.5587158203125	-201.3210296630859	2097.944580078125	622.4074096679688	-230.6142730712891	2022.969970703125	596.423583984375	-220.1758575439453	1765.159301757812	526.1148071289062	-497.8944396972656	2055.036376953125	559.4708862304688	-224.1771392822266	1711.820678710938	402.6332092285156	-500.9989013671875	1655.637573242188	320.15966796875	-490.0771789550781	2042.868041992188	438.1594848632812	-220.4197692871094	1563.839599609375	65.57184600830078	-465.7198486328125	1972.065551757812	474.4909973144531	-212.5753784179688	1460.1650390625	207.9347381591797	-367.2196655273438	1996.067138671875	347.4295349121094	-230.9222717285156	1927.400024414062	386.7720031738281	-227.1462097167969	1524.219604492188	190.5217437744141	-456.7936096191406	1874.83544921875	199.1635589599609	-257.6759033203125	2044.631225585938	113.974853515625	-259.1861572265625	1819.822875976562	202.828369140625	-323.4173583984375	1834.135498046875	171.7786102294922	-352.9886474609375	1806.16064453125	173.1904449462891	-302.1389465332031	1447.217163085938	206.9246063232422	-419.6371154785156
